#!OML:ASF E:\Mandelcareful walks\Project 1\Capture day 1\Session 1\Subject1.ASF
:FULLY-SPECIFIED
:DEGREES
784
root -3.62565 15.1099 -1.76257 163.458 88.8861 154.318
lowerback 39.7781 2.02329 -3.34593
upperback 7.70136 2.10235 -1.02808
thorax -10.7347 1.46814 -0.33481
lowerneck -26.6792 -8.45505 -9.78686
upperneck 0.0670411 -8.49561 9.72525
head 4.93552 -3.33122 3.69043
rclavicle 3.16565e-014 -1.80894e-014
rhumerus -10.6792 12.5681 -83.8175
rradius 64.2065
rwrist -15.3724
rhand -20.8325 -25.1654
rfingers 7.12502
rthumb 5.53604 -55.0731
lclavicle 3.16565e-014 -1.80894e-014
lhumerus -9.69784 -12.3521 75.4401
lradius 53.4296
lwrist 20.2212
lhand -25.0329 -13.9019
lfingers 7.12502
lthumb 1.47983 16.0727
rfemur -37.4035 -16.4124 6.71274
rtibia 57.3669
rfoot -22.0435 -3.17493
rtoes -12.7961
lfemur -48.0666 21.6716 -17.4226
ltibia 65.6394
lfoot -22.1388 9.87144
ltoes -4.80695
785
root -3.63245 15.108 -1.74909 147.336 88.9888 138.236
lowerback 39.7219 1.96282 -3.48364
upperback 7.65296 1.96625 -1.003
thorax -10.7712 1.40575 -0.177871
lowerneck -26.4655 -8.82613 -10.0849
upperneck -0.20571 -8.95545 10.2959
head 4.91101 -3.5232 3.86461
rclavicle 1.51076e-014 2.65378e-014
rhumerus -10.7953 12.6902 -83.8302
rradius 64.271
rwrist -15.3043
rhand -21.2436 -24.5867
rfingers 7.12502
rthumb 5.1391 -54.5044
lclavicle 1.51076e-014 2.65378e-014
lhumerus -9.97629 -12.3268 75.5625
lradius 54.04
lwrist 20.2556
lhand -25.2143 -13.275
lfingers 7.12502
lthumb 1.30461 16.7008
rfemur -37.558 -16.2509 6.56009
rtibia 57.4938
rfoot -22.0489 -3.16742
rtoes -12.857
lfemur -47.9792 21.8597 -17.5751
ltibia 65.5909
lfoot -22.0539 9.96953
ltoes -5.37449
786
root -3.64035 15.1045 -1.73461 131.353 89.1058 122.323
lowerback 39.6447 1.87948 -3.55202
upperback 7.6629 1.84092 -0.952733
thorax -10.7342 1.34787 -0.0324388
lowerneck -26.4109 -9.21379 -10.5434
upperneck -0.347711 -9.39905 11.0539
head 4.97285 -3.68957 4.12177
rclavicle 1.30701e-014 -5.96354e-015
rhumerus -10.6763 12.7477 -83.8404
rradius 64.2095
rwrist -15.3543
rhand -21.0736 -24.9117
rfingers 7.12502
rthumb 5.30324 -54.8254
lclavicle 1.30701e-014 -5.96354e-015
lhumerus -10.0759 -12.2985 75.6668
lradius 54.4883
lwrist 20.3905
lhand -25.298 -12.9931
lfingers 7.12502
lthumb 1.22373 16.9831
rfemur -37.67 -15.9831 6.51279
rtibia 57.6096
rfoot -22.0476 -3.14604
rtoes -12.6926
lfemur -47.8606 22.0615 -17.5878
ltibia 65.554
lfoot -21.9637 10.0431
ltoes -5.69268
787
root -3.6486 15.1018 -1.71772 116.401 89.2088 107.341
lowerback 39.6842 1.80468 -3.62634
upperback 7.46326 1.6962 -0.85849
thorax -10.9751 1.27542 0.164474
lowerneck -26.458 -9.47622 -10.7405
upperneck -0.103929 -9.76449 11.5268
head 5.1376 -3.83709 4.24934
rclavicle -2.61402e-014 -1.72943e-014
rhumerus -10.7501 12.9321 -83.859
rradius 64.1168
rwrist -15.532
rhand -20.555 -25.4456
rfingers 7.12502
rthumb 5.80399 -55.3461
lclavicle -2.61402e-014 -1.72943e-014
lhumerus -10.5271 -12.2493 75.8156
lradius 54.9224
lwrist 20.4287
lhand -25.2429 -13.0252
lfingers 7.12502
lthumb 1.27695 16.9508
rfemur -37.8744 -15.7608 6.60261
rtibia 57.7094
rfoot -22.0902 -3.07338
rtoes -12.0676
lfemur -47.8663 22.2404 -17.5227
ltibia 65.5064
lfoot -21.8666 10.1111
ltoes -5.54196
788
root -3.65329 15.1021 -1.7023 98.4306 89.2166 89.3772
lowerback 39.3203 1.6552 -3.5161
upperback 7.58195 1.56888 -0.903205
thorax -10.7144 1.21342 0.125115
lowerneck -26.3465 -9.84851 -10.8727
upperneck -0.0562827 -10.3157 12.1568
head 5.25055 -4.0687 4.39427
rclavicle 4.96962e-015 2.88238e-014
rhumerus -10.4846 12.8654 -83.892
rradius 64.0434
rwrist -15.5662
rhand -20.2376 -25.6952
rfingers 7.12502
rthumb 6.11044 -55.587
lclavicle 4.96962e-015 2.88238e-014
lhumerus -10.4517 -12.3956 75.7639
lradius 55.2143
lwrist 20.5061
lhand -25.2744 -12.8436
lfingers 7.12502
lthumb 1.24656 17.1325
rfemur -38.0288 -15.5959 6.66081
rtibia 57.7731
rfoot -22.1215 -3.05866
rtoes -11.9992
lfemur -47.7608 22.371 -17.4494
ltibia 65.4165
lfoot -21.8785 10.1562
ltoes -5.26793
